<svg version="1" xmlns="http://www.w3.org/2000/svg" width="682.667" height="682.667" viewBox="0 0 512.000000 512.000000"><path d="M232 1.1c-49.1 4.7-98.1 24.6-136.6 55.7C35.5 105 0 179.2 0 256c0 57.7 20.4 115.5 56.8 160.6 43.3 53.8 107.1 87.9 176.7 94.4 6.1.5 13.6 1 16.8 1h5.7V0l-7.7.1c-4.3.1-11.6.5-16.3 1zm-48.5 192c20.9 2.9 34.2 11.4 39.1 25 2.3 6.6 2.1 19.9-.6 27.9-7.8 23.3-31.9 38.2-67.7 42.1-8.8.9-26.2.7-31.6-.4-.5-.1-2.6 5-4.7 11.4-7.5 22.8-11.7 26-34.8 26-19.3 0-37.5-5.1-41.8-11.6-1.7-2.6-1.7-2.8.1-4.1 1-.8 3.6-1.4 5.7-1.4 11.5 0 15.4-5.2 28-37 8.8-22.1 13.8-31.8 20.1-38.7 8.8-9.5 18-12.7 37.7-12.8 11.9 0 12.5.1 12.8 2.1.2 1.1-1.7 5.8-4.2 10.5-4 7.6-16.6 42.1-16.6 45.5 0 1.9 11.4 1.9 19.6-.1 7.6-1.8 12.5-4.5 18.7-10.4 9.4-9 13.2-19.1 12.5-33-.5-10-2.7-15.2-8.5-20-6.6-5.4-11.9-6.6-29.3-6.5-18.2.1-28.4 1.7-46.7 7.4-13.5 4.2-15.8 4.6-16.8 2.9-3.5-5.6 35.8-20.4 64.5-24.3 12.8-1.7 34.2-2 44.5-.5zM398 190.6c-39.3 4.5-75.8 27.1-90.8 56.3-6.7 12.9-7.7 17-7.7 31.1 0 12.5 0 12.6 3.7 20 11.2 22.6 39.4 34.5 73.6 31.1 13.4-1.3 27.5-4.6 37.8-8.6 15.5-6.2 24.6-14.9 20.2-19.3-1.8-1.8-4.3-1.5-18 1.8-28.8 6.8-45.7 4.6-54.4-7.1-5.8-8-7.6-24.3-4-37.9 6.8-25.4 28.7-52.1 45.5-55.3 5.1-1 11 .3 12.6 2.7 2 3.1.8 7-8.6 26.7-4.3 9.2-7.9 17.7-7.9 19 0 6.3 7.6 10.8 18.1 10.9 20.1 0 34.5-14 35.7-35 .4-7.3.1-9.3-1.8-13.7-4-9.4-14.5-17.4-27-20.6-5.9-1.6-21.3-2.7-27-2.1z"/></svg>